# xmcd
# 
# Track frame offsets:
#     150
#     15925
#     34747
#     49323
#     66637
#     85484
#     101424
#     114004
#     140156
#     155544
#     169566
#     191764
#     213734
# 
# Disc length: 3099
# 
# Revision: 2
# Processed by: cddbd v1.5.2PL0 Copyright (c) Steve Scherf et al.
# Submitted via: fre:ac v1.0.27
# 
DISCID=b50c190d
DTITLE=John Hammond - Ready for Love
DYEAR=2003
DGENRE=Blues
TTITLE0=Slick Crown Vic
TTITLE1=No Chance
TTITLE2=Easy Loving
TTITLE3=Gin Soaked Boy
TTITLE4=Spider and the Fly
TTITLE5=Can't Remember to Forget
TTITLE6=Colour of the Blues
TTITLE7=Same Thing
TTITLE8=I Brought the Rain
TTITLE9=Comes Love
TTITLE10=Low Side of the Road
TTITLE11=Money Honey
TTITLE12=Just One More
EXTD=
EXTT0=
EXTT1=
EXTT2=
EXTT3=
EXTT4=
EXTT5=
EXTT6=
EXTT7=
EXTT8=
EXTT9=
EXTT10=
EXTT11=
EXTT12=
PLAYORDER=
